<?xml version="1.0" standalone="no"?>
<!DOCTYPE svg PUBLIC "-//W3C//DTD SVG 20010904//EN"
 "http://www.w3.org/TR/2001/REC-SVG-20010904/DTD/svg10.dtd">
<svg version="1.0" xmlns="http://www.w3.org/2000/svg"
 width="256.000000pt" height="256.000000pt" viewBox="0 0 256.000000 256.000000"
 preserveAspectRatio="xMidYMid meet">
<metadata>
Created by potrace 1.11, written by Peter Selinger 2001-2013
</metadata>
<g transform="translate(0.000000,256.000000) scale(0.100000,-0.100000)"
fill="#000000" stroke="none">
<path d="M1059 2525 c-2 -1 -40 -6 -84 -9 -200 -16 -389 -71 -507 -150 -164
-108 -273 -310 -304 -561 -3 -22 -7 -49 -9 -60 -25 -123 -19 -718 8 -795 3 -8
11 -44 18 -80 7 -36 14 -67 15 -70 0 -3 6 -18 12 -33 7 -16 10 -32 7 -37 -3
-5 0 -10 6 -12 6 -2 12 -15 12 -30 1 -14 5 -24 8 -22 6 4 32 -49 30 -61 -1 -3
7 -13 17 -23 9 -11 25 -31 36 -45 22 -31 76 -89 76 -82 0 3 8 -3 18 -12 11
-10 17 -21 15 -25 -2 -5 4 -8 15 -8 10 0 28 -9 40 -20 12 -12 22 -18 22 -14 0
3 10 0 23 -8 12 -8 39 -21 60 -27 20 -7 44 -19 52 -28 9 -8 15 -10 15 -3 0 7
7 7 23 -1 12 -7 33 -14 46 -15 13 -2 28 -9 32 -16 7 -10 9 -10 9 -1 0 9 7 10
23 4 12 -5 27 -9 32 -9 40 -1 123 -16 139 -24 12 -7 16 -7 12 0 -4 6 5 8 24 5
17 -2 74 -5 126 -6 51 -1 94 -6 94 -10 0 -5 5 -5 12 -1 21 13 83 8 80 -7 -1
-9 3 -7 12 4 9 12 16 14 21 8 4 -8 12 -8 27 0 16 9 19 8 13 -2 -6 -9 -4 -10 6
-3 8 5 32 9 54 10 22 1 64 3 93 5 38 2 56 -1 64 -12 8 -11 9 -11 4 4 -4 12 0
17 17 18 40 1 117 13 177 27 20 5 43 8 53 6 9 -1 15 1 12 6 -3 4 10 11 28 14
17 3 45 13 61 21 15 8 32 13 36 10 5 -3 10 -2 12 3 5 12 115 72 122 66 3 -2 4
-1 1 2 -7 11 24 36 36 28 7 -4 9 -3 5 4 -3 6 4 19 17 29 12 10 33 34 47 53 13
19 27 37 30 40 15 11 70 129 89 191 23 72 30 96 38 149 3 19 8 42 12 50 4 8 6
27 5 43 -2 15 0 27 4 27 19 0 17 629 -3 730 -3 14 -7 41 -11 60 -20 126 -52
227 -102 325 -44 84 -152 197 -234 244 -52 29 -173 77 -223 87 -75 17 -178 35
-220 39 -56 7 -551 16 -556 10z"/>
<path d="M2010 339 c0 -5 5 -7 10 -4 6 3 10 8 10 11 0 2 -4 4 -10 4 -5 0 -10
-5 -10 -11z"/>
<path d="M516 322 c-3 -5 1 -9 9 -9 8 0 12 4 9 9 -3 4 -7 8 -9 8 -2 0 -6 -4
-9 -8z"/>
<path d="M569 317 c6 -8 7 -18 3 -22 -4 -5 -1 -5 6 -1 10 6 10 11 1 22 -6 8
-14 14 -16 14 -3 0 0 -6 6 -13z"/>
<path d="M610 299 c0 -5 5 -7 10 -4 6 3 10 8 10 11 0 2 -4 4 -10 4 -5 0 -10
-5 -10 -11z"/>
<path d="M670 259 c0 -5 5 -7 10 -4 6 3 10 8 10 11 0 2 -4 4 -10 4 -5 0 -10
-5 -10 -11z"/>
<path d="M1855 259 c-3 -4 2 -6 10 -5 21 3 28 13 10 13 -9 0 -18 -4 -20 -8z"/>
<path d="M870 256 c0 -2 8 -10 18 -17 15 -13 16 -12 3 4 -13 16 -21 21 -21 13z"/>
<path d="M716 238 c3 -5 10 -6 15 -3 13 9 11 12 -6 12 -8 0 -12 -4 -9 -9z"/>
<path d="M1676 242 c-3 -5 1 -9 9 -9 8 0 12 4 9 9 -3 4 -7 8 -9 8 -2 0 -6 -4
-9 -8z"/>
<path d="M1055 220 c3 -5 8 -10 11 -10 2 0 4 5 4 10 0 6 -5 10 -11 10 -5 0 -7
-4 -4 -10z"/>
<path d="M1735 221 c-3 -5 -2 -12 3 -15 5 -3 9 1 9 9 0 17 -3 19 -12 6z"/>
<path d="M1415 200 c-3 -5 -1 -10 4 -10 6 0 11 5 11 10 0 6 -2 10 -4 10 -3 0
-8 -4 -11 -10z"/>
</g>
</svg>
