<?xml version="1.0" standalone="no"?>
<!DOCTYPE svg PUBLIC "-//W3C//DTD SVG 20010904//EN"
 "http://www.w3.org/TR/2001/REC-SVG-20010904/DTD/svg10.dtd">
<svg version="1.0" xmlns="http://www.w3.org/2000/svg"
 width="181.000000pt" height="181.000000pt" viewBox="0 0 181.000000 181.000000"
 preserveAspectRatio="xMidYMid meet">
<metadata>
Created by potrace 1.11, written by Peter Selinger 2001-2013
</metadata>
<g transform="translate(0.000000,181.000000) scale(0.100000,-0.100000)"
fill="#000000" stroke="none">
<path d="M0 905 l0 -905 905 0 905 0 0 109 c0 78 -4 111 -12 114 -10 4 -10 6
0 6 9 1 12 77 12 346 l0 344 -102 4 -103 3 103 2 102 2 0 34 c0 19 -6 37 -12
39 -10 4 -10 6 0 6 9 1 12 88 12 401 l0 400 -905 0 -905 0 0 -905z m242 745
c24 -29 24 -101 0 -130 -11 -13 -33 -23 -60 -27 l-42 -6 0 98 0 98 42 -6 c27
-4 49 -14 60 -27z m538 -27 l0 -57 33 32 c41 39 61 43 24 4 l-27 -28 31 -42
c17 -23 26 -42 21 -42 -6 0 -20 14 -32 30 -12 17 -28 30 -36 30 -9 0 -14 -11
-14 -30 0 -16 -4 -30 -10 -30 -6 0 -10 38 -10 95 0 57 4 95 10 95 6 0 10 -26
10 -57z m314 12 c10 -25 21 -45 26 -45 4 0 16 20 27 45 10 25 21 45 26 45 11
0 9 -7 -18 -60 -14 -28 -25 -66 -25 -90 0 -22 -4 -40 -10 -40 -5 0 -10 18 -10
40 0 24 -11 62 -25 90 -27 54 -29 60 -16 60 4 0 16 -20 25 -45z m501 36 c3 -5
1 -12 -5 -16 -5 -3 -10 1 -10 9 0 18 6 21 15 7z m155 -1 c0 -5 -4 -10 -10 -10
-5 0 -10 5 -10 10 0 6 5 10 10 10 6 0 10 -4 10 -10z m-1421 -92 l23 -53 25 55
c14 30 27 50 30 44 2 -6 -12 -44 -30 -85 -34 -73 -61 -108 -74 -95 -4 3 3 13
15 22 28 20 28 43 -3 104 -27 54 -29 60 -17 60 4 0 18 -24 31 -52z m156 -11
c20 -54 25 -52 50 16 10 26 21 47 26 47 8 0 -37 -119 -51 -133 -6 -7 -60 109
-60 130 0 16 19 -16 35 -60z m209 47 c21 -20 23 -133 3 -116 -8 7 -18 7 -27 2
-8 -6 -20 -10 -27 -10 -14 0 -43 27 -43 41 0 18 41 49 66 49 16 0 24 5 22 13
-6 17 -46 21 -64 7 -9 -8 -14 -9 -14 -2 0 14 29 31 52 32 9 0 24 -7 32 -16z
m548 -41 c3 -57 3 -58 33 -58 29 0 30 1 36 60 l6 60 1 -75 c0 -41 -2 -69 -5
-63 -3 10 -10 10 -24 2 -45 -24 -69 7 -69 89 0 63 19 51 22 -15z m196 46 c26
14 42 14 42 1 0 -5 -11 -10 -24 -10 -33 0 -44 -17 -49 -75 -3 -39 -4 -33 -5
25 -1 45 2 70 7 61 6 -10 13 -11 29 -2z m162 -49 c0 -53 2 -60 20 -60 11 0 20
-4 20 -10 0 -5 -25 -10 -55 -10 -30 0 -55 5 -55 10 0 6 11 10 25 10 23 0 25 3
25 50 0 47 -2 50 -25 50 -14 0 -25 5 -25 10 0 6 16 10 35 10 l35 0 0 -60z
m150 0 c0 -53 2 -60 20 -60 11 0 20 -4 20 -10 0 -5 -25 -10 -55 -10 -30 0 -55
5 -55 10 0 6 11 10 25 10 23 0 25 3 25 50 0 47 -2 50 -25 50 -14 0 -25 5 -25
10 0 6 16 10 35 10 l35 0 0 -60z m-103 -536 c-3 -3 -12 -4 -19 -1 -8 3 -5 6 6
6 11 1 17 -2 13 -5z m-1325 -32 c-7 -2 -12 -13 -13 -25 -1 -20 -2 -20 -8 3
-10 31 -5 41 16 33 11 -4 13 -8 5 -11z m125 -29 c-3 -10 -5 -4 -5 12 0 17 2
24 5 18 2 -7 2 -21 0 -30z m118 27 c3 -6 -1 -7 -9 -4 -18 7 -21 14 -7 14 6 0
13 -4 16 -10z m278 3 c-7 -2 -21 -2 -30 0 -10 3 -4 5 12 5 17 0 24 -2 18 -5z
m232 -3 c3 -6 -1 -7 -9 -4 -18 7 -21 14 -7 14 6 0 13 -4 16 -10z m80 -25 c0
-16 -6 -29 -13 -31 -7 -1 -8 0 -2 3 5 2 10 15 10 28 0 13 -5 26 -10 28 -6 3
-5 4 2 3 7 -2 13 -15 13 -31z m150 25 c3 -6 -1 -7 -9 -4 -18 7 -21 14 -7 14 6
0 13 -4 16 -10z m425 -19 c0 -16 6 -32 13 -34 6 -3 -1 -5 -18 -5 -16 0 -24 2
-17 5 6 2 12 15 12 28 0 13 -6 26 -12 28 -8 3 -6 6 5 6 12 1 17 -7 17 -28z
m47 -23 c-2 -13 -4 -5 -4 17 -1 22 1 32 4 23 2 -10 2 -28 0 -40z m-1640 10
c-3 -8 -6 -5 -6 6 -1 11 2 17 5 13 3 -3 4 -12 1 -19z m792 -5 c-1 -17 -3 -21
-6 -10 -2 9 -12 17 -21 18 -14 0 -13 2 3 9 11 5 21 9 23 9 1 1 1 -11 1 -26z
m28 5 c-3 -8 -6 -5 -6 6 -1 11 2 17 5 13 3 -3 4 -12 1 -19z m230 0 c-3 -8 -6
-5 -6 6 -1 11 2 17 5 13 3 -3 4 -12 1 -19z m50 0 c-3 -8 -6 -5 -6 6 -1 11 2
17 5 13 3 -3 4 -12 1 -19z m-164 5 c-7 -2 -21 -2 -30 0 -10 3 -4 5 12 5 17 0
24 -2 18 -5z m303 -15 l19 -23 -25 20 c-14 11 -27 21 -29 22 -2 2 0 3 6 3 5 0
18 -10 29 -22z m-811 -8 c-3 -5 -12 -10 -18 -10 -7 0 -6 4 3 10 19 12 23 12
15 0z m740 0 c-3 -5 -12 -10 -18 -10 -7 0 -6 4 3 10 19 12 23 12 15 0z m-1052
-7 c-7 -2 -19 -2 -25 0 -7 3 -2 5 12 5 14 0 19 -2 13 -5z m84 1 c-3 -3 -12 -4
-19 -1 -8 3 -5 6 6 6 11 1 17 -2 13 -5z m1326 -1 c-7 -2 -21 -2 -30 0 -10 3
-4 5 12 5 17 0 24 -2 18 -5z m-1488 -23 c-3 -5 -12 -10 -18 -10 -7 0 -6 4 3
10 19 12 23 12 15 0z m313 3 c-54 -2 -142 -2 -196 0 -53 1 -9 3 98 3 107 0
151 -2 98 -3z m765 0 c-83 -2 -223 -2 -310 0 -87 1 -19 3 152 3 171 0 242 -2
158 -3z m234 -310 c-2 -16 -4 -3 -4 27 0 30 2 43 4 28 2 -16 2 -40 0 -55z
m-1324 26 l22 -2 -22 -4 c-13 -2 -24 -13 -26 -26 -2 -12 -4 1 -4 28 0 28 2 40
4 28 3 -15 12 -23 26 -24z m320 34 c-7 -2 -21 -2 -30 0 -10 3 -4 5 12 5 17 0
24 -2 18 -5z m1150 0 c-7 -2 -19 -2 -25 0 -7 3 -2 5 12 5 14 0 19 -2 13 -5z
m-1016 -19 c-3 -3 -12 -4 -19 -1 -8 3 -5 6 6 6 11 1 17 -2 13 -5z m260 -46
c-2 -13 -4 -5 -4 17 -1 22 1 32 4 23 2 -10 2 -28 0 -40z m40 0 c-2 -13 -4 -5
-4 17 -1 22 1 32 4 23 2 -10 2 -28 0 -40z m90 46 c-3 -3 -12 -4 -19 -1 -8 3
-5 6 6 6 11 1 17 -2 13 -5z m83 -23 c0 -16 6 -32 13 -34 6 -3 -1 -5 -18 -5
-16 0 -24 2 -17 5 6 2 12 15 12 28 0 13 -6 26 -12 28 -8 3 -6 6 5 6 12 1 17
-7 17 -28z m380 25 c0 -2 -7 -7 -16 -10 -8 -3 -12 -2 -9 4 6 10 25 14 25 6z
m-687 -21 c-3 -9 -8 -14 -10 -11 -3 3 -2 9 2 15 9 16 15 13 8 -4z m556 -22
c-1 -17 -3 -21 -6 -10 -2 9 -12 17 -21 18 -14 0 -13 2 3 9 11 5 21 9 23 9 1 1
1 -11 1 -26z m460 0 c-1 -17 -3 -21 -6 -10 -2 9 -12 17 -21 18 -14 0 -13 2 3
9 11 5 21 9 23 9 1 1 1 -11 1 -26z m-944 -21 c-3 -3 -11 0 -18 7 -9 10 -8 11
6 5 10 -3 15 -9 12 -12z m610 0 c-3 -3 -11 0 -18 7 -9 10 -8 11 6 5 10 -3 15
-9 12 -12z m-1212 1 c-7 -2 -19 -2 -25 0 -7 3 -2 5 12 5 14 0 19 -2 13 -5z
m230 0 c-7 -2 -21 -2 -30 0 -10 3 -4 5 12 5 17 0 24 -2 18 -5z m540 0 c-7 -2
-21 -2 -30 0 -10 3 -4 5 12 5 17 0 24 -2 18 -5z m610 0 c-7 -2 -19 -2 -25 0
-7 3 -2 5 12 5 14 0 19 -2 13 -5z m-1458 -393 c0 -49 -4 -70 -12 -70 -9 0 -13
21 -13 70 0 49 4 70 13 70 8 0 12 -21 12 -70z m185 0 c0 -38 -3 -70 -7 -70 -5
0 -8 32 -8 70 0 39 3 70 8 70 4 0 7 -31 7 -70z m199 4 c7 -26 9 -49 6 -52 -3
-3 -5 0 -5 6 0 16 -47 15 -54 0 -9 -19 5 53 15 80 12 32 24 21 38 -34z m281 2
c0 -51 -1 -53 -27 -52 -25 1 -28 5 -28 36 0 30 3 35 23 34 15 0 22 5 22 18 0
10 2 18 5 18 3 0 5 -24 5 -54z m810 5 c0 -30 5 -51 13 -54 6 -3 -4 -6 -23 -6
-28 0 -32 2 -17 10 11 6 17 22 17 44 0 22 -6 38 -17 44 -16 9 -16 10 5 11 20
0 22 -5 22 -49z m-1372 -8 c14 -12 14 -13 -1 -13 -9 0 -18 -8 -18 -17 -1 -17
-2 -17 -6 0 -2 9 -12 18 -21 18 -15 1 -15 2 1 6 9 2 17 14 18 26 0 15 2 17 6
7 3 -8 12 -21 21 -27z m372 12 c15 -18 -1 -20 -18 -3 -14 14 -27 -13 -18 -38
5 -13 9 -14 21 -4 11 9 15 9 15 1 0 -18 -29 -25 -45 -11 -18 15 -19 42 -3 58
16 16 33 15 48 -3z m88 3 c7 -7 12 -24 12 -38 0 -22 -4 -26 -27 -25 -35 0 -45
34 -14 42 11 3 18 9 16 14 -3 4 -13 5 -22 2 -11 -4 -14 -3 -9 5 9 15 29 15 44
0z m190 0 c19 -19 14 -28 -14 -28 -16 0 -24 -5 -21 -12 2 -7 12 -12 22 -11 13
1 14 -2 6 -10 -27 -27 -65 29 -41 58 15 18 32 19 48 3z m98 -33 c1 -33 1 -34
-3 -7 -2 17 -8 32 -14 32 -5 0 -10 -15 -11 -32 l-1 -33 -4 33 c-2 17 -8 32
-13 32 -5 0 -11 -15 -13 -32 -3 -30 -4 -29 -5 8 -2 40 -1 41 31 40 30 -1 32
-3 33 -41z m74 11 c0 -19 6 -37 13 -39 6 -3 -3 -6 -21 -6 -30 -1 -32 0 -18 15
21 20 20 41 -1 53 -16 9 -16 10 5 11 19 0 22 -5 22 -34z m108 14 c3 -12 2 -12
-8 -3 -16 15 -40 5 -40 -17 0 -22 24 -32 39 -17 8 8 11 8 11 0 0 -17 -18 -25
-40 -18 -23 7 -28 60 -7 68 20 9 40 3 45 -13z m192 -36 c0 -30 -4 -54 -10 -54
-5 0 -10 9 -10 21 0 11 -4 17 -10 14 -14 -9 -40 13 -40 34 0 24 17 39 46 39
22 0 24 -4 24 -54z m55 -7 c6 -1 11 13 13 31 4 45 22 40 22 -6 0 -35 -2 -38
-27 -37 -26 0 -28 4 -30 40 -1 38 -1 38 5 7 4 -18 12 -34 17 -35z m113 51 c7
-7 12 -24 12 -38 0 -22 -4 -26 -27 -25 -35 0 -45 34 -14 42 11 3 18 9 16 14
-3 4 -13 5 -22 2 -11 -4 -14 -3 -9 5 9 15 29 15 44 0z m172 -18 c0 -17 7 -33
18 -39 14 -8 10 -10 -18 -10 -19 0 -29 3 -22 6 6 2 12 17 12 33 0 16 -6 31
-12 33 -8 3 -6 6 5 6 12 1 17 -7 17 -29z"/>
<path d="M160 1585 l0 -75 28 0 c40 0 52 17 52 75 0 58 -12 75 -52 75 l-28 0
0 -75z"/>
<path d="M623 1544 c-8 -21 10 -36 38 -32 16 2 25 11 27 26 3 19 -1 22 -28 22
-19 0 -33 -6 -37 -16z"/>
<path d="M527 210 c-3 -12 0 -20 8 -20 8 0 11 8 8 20 -3 11 -7 20 -8 20 -1 0
-5 -9 -8 -20z"/>
<path d="M790 190 c0 -13 7 -20 20 -20 13 0 20 7 20 20 0 13 -7 20 -20 20 -13
0 -20 -7 -20 -20z"/>
<path d="M702 179 c2 -6 8 -10 13 -10 5 0 11 4 13 10 2 6 -4 11 -13 11 -9 0
-15 -5 -13 -11z"/>
<path d="M895 210 c-3 -5 1 -10 10 -10 9 0 13 5 10 10 -3 6 -8 10 -10 10 -2 0
-7 -4 -10 -10z"/>
<path d="M1350 205 c-10 -12 -10 -18 0 -30 15 -18 30 -11 30 15 0 26 -15 33
-30 15z"/>
<path d="M1532 179 c2 -6 8 -10 13 -10 5 0 11 4 13 10 2 6 -4 11 -13 11 -9 0
-15 -5 -13 -11z"/>
</g>
</svg>
