<?xml version="1.0" standalone="no"?>
<!DOCTYPE svg PUBLIC "-//W3C//DTD SVG 20010904//EN"
 "http://www.w3.org/TR/2001/REC-SVG-20010904/DTD/svg10.dtd">
<svg version="1.0" xmlns="http://www.w3.org/2000/svg"
 width="259.000000pt" height="259.000000pt" viewBox="0 0 259.000000 259.000000"
 preserveAspectRatio="xMidYMid meet">
<metadata>
Created by potrace 1.11, written by Peter Selinger 2001-2013
</metadata>
<g transform="translate(0.000000,259.000000) scale(0.100000,-0.100000)"
fill="#000000" stroke="none">
<path d="M1470 2485 c0 -57 -4 -95 -10 -95 -5 0 -10 -12 -10 -26 0 -37 -16
-63 -75 -119 -100 -94 -126 -115 -145 -115 -11 0 -20 -4 -20 -10 0 -5 -18 -14
-40 -20 -22 -6 -40 -15 -40 -20 0 -5 -18 -26 -40 -46 -22 -20 -42 -45 -45 -55
-3 -10 -15 -21 -26 -24 -10 -4 -19 -15 -19 -25 0 -11 -21 -60 -47 -110 -40
-77 -48 -101 -51 -160 -7 -119 -1 -133 91 -230 30 -32 37 -48 37 -79 0 -65
-13 -71 -158 -71 -116 0 -128 -2 -140 -20 -8 -13 -23 -20 -42 -20 -18 0 -33
-6 -36 -15 -4 -8 -10 -15 -14 -15 -18 0 -86 -77 -98 -112 -18 -51 -5 -67 84
-113 40 -21 75 -44 78 -52 4 -8 6 -47 6 -87 0 -64 3 -75 25 -96 28 -26 34 -82
15 -136 -11 -31 -12 -31 -210 -70 -35 -7 -113 -46 -123 -61 -4 -7 -12 -13 -17
-13 -5 0 -22 -14 -40 -31 -30 -31 -31 -33 -28 -113 l3 -81 57 -5 c31 -3 63
-11 70 -18 6 -6 34 -12 60 -12 37 0 54 -5 72 -23 33 -33 147 -77 202 -77 16 0
43 -9 59 -20 17 -11 38 -20 48 -20 10 0 22 -11 27 -25 l10 -25 572 2 573 3 3
48 c3 39 7 49 26 57 13 5 26 20 30 34 5 22 12 25 54 28 l47 3 3 163 2 162
-227 0 c-126 0 -234 4 -241 9 -9 5 -12 29 -10 82 l3 74 45 8 c25 5 68 11 95
14 32 3 59 13 75 28 14 12 40 27 59 34 33 11 111 67 141 102 8 9 24 19 35 21
19 3 20 12 23 137 2 124 1 135 -18 153 -11 10 -20 23 -20 28 0 6 -9 10 -20 10
-11 0 -47 11 -80 25 -50 21 -75 25 -158 25 -159 0 -165 -3 -181 -85 -6 -29 -8
-30 -66 -33 -107 -6 -105 -7 -105 110 0 72 -5 117 -19 157 -48 147 -51 160
-51 257 0 94 2 101 28 129 15 17 40 39 57 49 16 11 34 23 40 28 44 36 95 72
118 84 27 15 54 35 83 62 8 7 14 24 14 37 0 13 5 35 11 48 15 32 -3 67 -34 67
-13 0 -47 -11 -75 -25 -49 -24 -112 -32 -145 -19 -14 5 -15 35 -10 225 l6 219
-76 0 -77 0 0 -95z"/>
</g>
</svg>
